<?xml version="1.0" encoding="utf-8"?>
<!-- Generator: Adobe Illustrator 23.0.1, SVG Export Plug-In . SVG Version: 6.00 Build 0)  -->
<svg version="1.1" xmlns="http://www.w3.org/2000/svg" xmlns:xlink="http://www.w3.org/1999/xlink" x="0px" y="0px"
	 viewBox="0 0 64 64" style="enable-background:new 0 0 64 64;" xml:space="preserve">
<style type="text/css">
	.st0{fill:#C1272D;stroke:#C1272D;stroke-width:0.25;stroke-miterlimit:10;}
	.st1{display:none;}
	.st2{display:inline;fill:#39B54A;stroke:#39B54A;stroke-width:0.25;stroke-miterlimit:10;}
</style>
<g id="Vrstva_2">
	<path class="st0" d="M17.16,4.74l42.11,42.11c3.42,3.42,3.42,9,0,12.42l0,0c-3.42,3.42-9,3.42-12.42,0L4.74,17.16
		c-3.42-3.42-3.42-9,0-12.42l0,0C8.15,1.32,13.74,1.32,17.16,4.74z"/>
	<path class="st0" d="M4.74,46.84L46.84,4.74c3.42-3.42,9-3.42,12.42,0l0,0c3.42,3.42,3.42,9,0,12.42L17.16,59.26
		c-3.42,3.42-9,3.42-12.42,0l0,0C1.32,55.85,1.32,50.26,4.74,46.84z"/>
</g>
<g id="Vrstva_3" class="st1">
	<path class="st2" d="M23.22,54.84V9.16c0-4.83,3.95-8.78,8.78-8.78h0c4.83,0,8.78,3.95,8.78,8.78v45.68c0,4.83-3.95,8.78-8.78,8.78
		h0C27.17,63.62,23.22,59.67,23.22,54.84z"/>
	<path class="st2" d="M54.84,40.78H9.16c-4.83,0-8.78-3.95-8.78-8.78v0c0-4.83,3.95-8.78,8.78-8.78h45.68
		c4.83,0,8.78,3.95,8.78,8.78v0C63.62,36.83,59.67,40.78,54.84,40.78z"/>
</g>
</svg>
